RobotoDelta-opszmax-old.ufo
<glyph name="one" format="1">
  <advance width="1024"/>
  <unicode hex="0031"/>
  <outline>
    <contour>
      <point x="535" y="0" type="line"/>
      <point x="693" y="0" type="line"/>
      <point x="693" y="1476" type="line"/>
      <point x="660" y="1476" type="line"/>
      <point x="171" y="1291" type="line"/>
      <point x="171" y="1128" type="line"/>
      <point x="535" y="1281" type="line"/>
    </contour>
  </outline>
</glyph>
<glyph name="four" format="1">
  <advance width="1024"/>
  <unicode hex="0034"/>
  <outline>
    <contour>
      <point x="685" y="0" type="line"/>
      <point x="835" y="0" type="line"/>
      <point x="835" y="1456" type="line"/>
      <point x="703" y="1456" type="line"/>
      <point x="53" y="466" type="line"/>
      <point x="53" y="354" type="line"/>
      <point x="1027" y="354" type="line"/>
      <point x="1027" y="480" type="line"/>
      <point x="771" y="480" type="line"/>
      <point x="746" y="480" type="line"/>
      <point x="222" y="480" type="line"/>
      <point x="674" y="1173" type="line"/>
      <point x="685" y="1173" type="line"/>
      <point x="685" y="415" type="line"/>
      <point x="685" y="398" type="line"/>
    </contour>
  </outline>
</glyph>
<glyph name="six" format="1">
  <advance width="1033"/>
  <unicode hex="0036"/>
  <outline>
    <contour>
      <point x="85" y="573" type="line" smooth="yes"/>
      <point x="85" y="260"/>
      <point x="327" y="-18"/>
      <point x="540" y="-18" type="qcurve" smooth="yes"/>
      <point x="723" y="-18"/>
      <point x="970" y="235"/>
      <point x="970" y="464" type="qcurve" smooth="yes"/>
      <point x="970" y="673"/>
      <point x="758" y="918"/>
      <point x="559" y="918" type="qcurve" smooth="yes"/>
      <point x="447" y="918"/>
      <point x="257" y="806"/>
      <point x="227" y="733" type="qcurve"/>
      <point x="230" y="524" type="line"/>
      <point x="254" y="658"/>
      <point x="429" y="778"/>
      <point x="526" y="778" type="qcurve" smooth="yes"/>
      <point x="666" y="778"/>
      <point x="815" y="625"/>
      <point x="815" y="453" type="qcurve" smooth="yes"/>
      <point x="815" y="283"/>
      <point x="668" y="122"/>
      <point x="528" y="122" type="qcurve" smooth="yes"/>
      <point x="404" y="122"/>
      <point x="241" y="309"/>
      <point x="241" y="547" type="qcurve" smooth="yes"/>
      <point x="241" y="682" type="line" smooth="yes"/>
      <point x="241" y="1044"/>
      <point x="556" y="1332"/>
      <point x="761" y="1332" type="qcurve" smooth="yes"/>
      <point x="801" y="1332" type="line"/>
      <point x="801" y="1472" type="line"/>
      <point x="776" y="1472" type="line" smooth="yes"/>
      <point x="447" y="1472"/>
      <point x="85" y="1043"/>
      <point x="85" y="657" type="qcurve" smooth="yes"/>
    </contour>
  </outline>
</glyph>
<glyph name="eight" format="1">
  <advance width="1024"/>
  <unicode hex="0038"/>
  <outline>
    <contour>
      <point x="74" y="399" type="qcurve" smooth="yes"/>
      <point x="74" y="198"/>
      <point x="301" y="-18"/>
      <point x="513" y="-18" type="qcurve" smooth="yes"/>
      <point x="724" y="-18"/>
      <point x="950" y="198"/>
      <point x="950" y="399" type="qcurve" smooth="yes"/>
      <point x="950" y="533"/>
      <point x="821" y="720"/>
      <point x="693" y="767" type="qcurve"/>
      <point x="693" y="771" type="line"/>
      <point x="799" y="812"/>
      <point x="897" y="972"/>
      <point x="897" y="1081" type="qcurve" smooth="yes"/>
      <point x="897" y="1267"/>
      <point x="698" y="1467"/>
      <point x="513" y="1467" type="qcurve" smooth="yes"/>
      <point x="327" y="1467"/>
      <point x="127" y="1267"/>
      <point x="127" y="1081" type="qcurve" smooth="yes"/>
      <point x="127" y="973"/>
      <point x="226" y="813"/>
      <point x="327" y="767" type="qcurve"/>
      <point x="327" y="764" type="line"/>
      <point x="214" y="729"/>
      <point x="74" y="523"/>
    </contour>
    <contour>
      <point x="279" y="1078" type="qcurve" smooth="yes"/>
      <point x="279" y="1198"/>
      <point x="400" y="1329"/>
      <point x="513" y="1329" type="qcurve" smooth="yes"/>
      <point x="625" y="1329"/>
      <point x="745" y="1198"/>
      <point x="745" y="1078" type="qcurve" smooth="yes"/>
      <point x="745" y="960"/>
      <point x="625" y="833"/>
      <point x="513" y="833" type="qcurve" smooth="yes"/>
      <point x="404" y="833"/>
      <point x="279" y="960"/>
    </contour>
    <contour>
      <point x="226" y="404" type="qcurve" smooth="yes"/>
      <point x="226" y="545"/>
      <point x="374" y="697"/>
      <point x="511" y="697" type="qcurve" smooth="yes"/>
      <point x="641" y="697"/>
      <point x="798" y="545"/>
      <point x="798" y="404" type="qcurve" smooth="yes"/>
      <point x="798" y="267"/>
      <point x="650" y="120"/>
      <point x="513" y="120" type="qcurve" smooth="yes"/>
      <point x="375" y="120"/>
      <point x="226" y="267"/>
    </contour>
  </outline>
</glyph>
<glyph name="C" format="1">
  <advance width="1153"/>
  <unicode hex="0043"/>
  <outline>
    <contour>
      <point x="80" y="684" type="line" smooth="yes"/>
      <point x="80" y="319"/>
      <point x="375" y="-18"/>
      <point x="626" y="-18" type="qcurve" smooth="yes"/>
      <point x="847" y="-18"/>
      <point x="1117" y="210"/>
      <point x="1117" y="479" type="qcurve" smooth="yes"/>
      <point x="1117" y="510" type="line"/>
      <point x="959" y="510" type="line"/>
      <point x="959" y="467" type="line" smooth="yes"/>
      <point x="959" y="276"/>
      <point x="790" y="121"/>
      <point x="625" y="121" type="qcurve" smooth="yes"/>
      <point x="436" y="121"/>
      <point x="245" y="408"/>
      <point x="245" y="682" type="qcurve" smooth="yes"/>
      <point x="245" y="777" type="line" smooth="yes"/>
      <point x="245" y="1073"/>
      <point x="439" y="1335"/>
      <point x="638" y="1335" type="qcurve" smooth="yes"/>
      <point x="807" y="1335"/>
      <point x="958" y="1151"/>
      <point x="958" y="984" type="qcurve" smooth="yes"/>
      <point x="958" y="959" type="line"/>
      <point x="1117" y="959" type="line"/>
      <point x="1117" y="1000" type="line" smooth="yes"/>
      <point x="1117" y="1230"/>
      <point x="861" y="1474"/>
      <point x="634" y="1474" type="qcurve" smooth="yes"/>
      <point x="387" y="1474"/>
      <point x="80" y="1135"/>
      <point x="80" y="773" type="qcurve" smooth="yes"/>
    </contour>
    <contour>
      <point x="720" y="0" type="move" name="bottom"/>
    </contour>
  </outline>
</glyph>
<glyph name="D" format="1">
  <advance width="1203"/>
  <unicode hex="0044"/>
  <outline>
    <contour>
      <point x="156" y="0" type="line"/>
      <point x="523" y="0" type="line" smooth="yes"/>
      <point x="816" y="0"/>
      <point x="1123" y="372"/>
      <point x="1123" y="703" type="qcurve" smooth="yes"/>
      <point x="1123" y="754" type="line" smooth="yes"/>
      <point x="1123" y="1114"/>
      <point x="811" y="1456"/>
      <point x="540" y="1456" type="qcurve" smooth="yes"/>
      <point x="156" y="1456" type="line"/>
    </contour>
    <contour>
      <point x="316" y="140" type="line"/>
      <point x="316" y="1316" type="line"/>
      <point x="536" y="1316" type="line" smooth="yes"/>
      <point x="737" y="1316"/>
      <point x="961" y="1052"/>
      <point x="961" y="757" type="qcurve" smooth="yes"/>
      <point x="961" y="702" type="line" smooth="yes"/>
      <point x="961" y="437"/>
      <point x="745" y="140"/>
      <point x="519" y="140" type="qcurve" smooth="yes"/>
    </contour>
  </outline>
</glyph>
<glyph name="E" format="1">
  <advance width="1001"/>
  <unicode hex="0045"/>
  <outline>
    <contour>
      <point x="156" y="0" type="line"/>
      <point x="967" y="0" type="line"/>
      <point x="967" y="140" type="line"/>
      <point x="316" y="140" type="line"/>
      <point x="316" y="682" type="line"/>
      <point x="895" y="682" type="line"/>
      <point x="895" y="822" type="line"/>
      <point x="316" y="822" type="line"/>
      <point x="316" y="1316" type="line"/>
      <point x="958" y="1316" type="line"/>
      <point x="958" y="1456" type="line"/>
      <point x="156" y="1456" type="line"/>
    </contour>
    <contour>
      <point x="626" y="1432" type="move" name="top"/>
    </contour>
  </outline>
</glyph>
<glyph name="G" format="1">
  <advance width="1201"/>
  <unicode hex="0047"/>
  <outline>
    <contour>
      <point x="80" y="696" type="line" smooth="yes"/>
      <point x="80" y="342"/>
      <point x="376" y="-18"/>
      <point x="642" y="-18" type="qcurve" smooth="yes"/>
      <point x="817" y="-18"/>
      <point x="1063" y="92"/>
      <point x="1120" y="155" type="qcurve"/>
      <point x="1120" y="713" type="line"/>
      <point x="636" y="713" type="line"/>
      <point x="636" y="573" type="line"/>
      <point x="965" y="573" type="line"/>
      <point x="965" y="201" type="line"/>
      <point x="931" y="173"/>
      <point x="771" y="122"/>
      <point x="661" y="122" type="qcurve" smooth="yes"/>
      <point x="452" y="122"/>
      <point x="241" y="379"/>
      <point x="241" y="695" type="qcurve" smooth="yes"/>
      <point x="241" y="758" type="line" smooth="yes"/>
      <point x="241" y="1093"/>
      <point x="451" y="1334"/>
      <point x="632" y="1334" type="qcurve" smooth="yes"/>
      <point x="802" y="1334"/>
      <point x="957" y="1179"/>
      <point x="957" y="1039" type="qcurve" smooth="yes"/>
      <point x="957" y="996" type="line"/>
      <point x="1119" y="996" type="line"/>
      <point x="1119" y="1060" type="line" smooth="yes"/>
      <point x="1119" y="1247"/>
      <point x="862" y="1474"/>
      <point x="631" y="1474" type="qcurve" smooth="yes"/>
      <point x="383" y="1474"/>
      <point x="80" y="1140"/>
      <point x="80" y="754" type="qcurve" smooth="yes"/>
    </contour>
  </outline>
</glyph>
<glyph name="J" format="1">
  <advance width="966"/>
  <unicode hex="004A"/>
  <outline>
    <contour>
      <point x="24" y="376" type="line" smooth="yes"/>
      <point x="24" y="172"/>
      <point x="234" y="-19"/>
      <point x="416" y="-19" type="qcurve" smooth="yes"/>
      <point x="626" y="-19"/>
      <point x="836" y="214"/>
      <point x="836" y="419" type="qcurve" smooth="yes"/>
      <point x="836" y="1456" type="line"/>
      <point x="674" y="1456" type="line"/>
      <point x="674" y="419" type="line" smooth="yes"/>
      <point x="674" y="256"/>
      <point x="544" y="122"/>
      <point x="429" y="122" type="qcurve" smooth="yes"/>
      <point x="305" y="122"/>
      <point x="185" y="241"/>
      <point x="185" y="378" type="qcurve" smooth="yes"/>
      <point x="185" y="423" type="line"/>
      <point x="24" y="423" type="line"/>
    </contour>
  </outline>
</glyph>
<glyph name="N" format="1">
  <advance width="1339"/>
  <unicode hex="004E"/>
  <outline>
    <contour>
      <point x="156" y="0" type="line"/>
      <point x="312" y="0" type="line"/>
      <point x="312" y="976" type="line" smooth="yes"/>
      <point x="312" y="1012"/>
      <point x="311" y="1119"/>
      <point x="310" y="1159" type="qcurve"/>
      <point x="312" y="1159" type="line"/>
      <point x="326" y="1132"/>
      <point x="396" y="1024"/>
      <point x="413" y="997" type="qcurve" smooth="yes"/>
      <point x="1031" y="0" type="line"/>
      <point x="1183" y="0" type="line"/>
      <point x="1183" y="1456" type="line"/>
      <point x="1027" y="1456" type="line"/>
      <point x="1027" y="458" type="line" smooth="yes"/>
      <point x="1027" y="424"/>
      <point x="1029" y="323"/>
      <point x="1029" y="301" type="qcurve"/>
      <point x="1027" y="301" type="line"/>
      <point x="1013" y="329"/>
      <point x="950" y="430"/>
      <point x="936" y="452" type="qcurve" smooth="yes"/>
      <point x="313" y="1456" type="line"/>
      <point x="156" y="1456" type="line"/>
    </contour>
    <contour>
      <point x="682" y="1432" type="move" name="top"/>
    </contour>
  </outline>
</glyph>
<glyph name="O" format="1">
  <advance width="1264"/>
  <unicode hex="004F"/>
  <outline>
    <contour>
      <point x="80" y="695" type="line" smooth="yes"/>
      <point x="80" y="330"/>
      <point x="378" y="-18"/>
      <point x="633" y="-18" type="qcurve" smooth="yes"/>
      <point x="888" y="-18"/>
      <point x="1184" y="333"/>
      <point x="1184" y="692" type="qcurve" smooth="yes"/>
      <point x="1184" y="757" type="line" smooth="yes"/>
      <point x="1184" y="1127"/>
      <point x="893" y="1474"/>
      <point x="632" y="1474" type="qcurve" smooth="yes"/>
      <point x="371" y="1474"/>
      <point x="80" y="1124"/>
      <point x="80" y="752" type="qcurve" smooth="yes"/>
    </contour>
    <contour>
      <point x="244" y="694" type="qcurve" smooth="yes"/>
      <point x="244" y="755" type="line" smooth="yes"/>
      <point x="244" y="1078"/>
      <point x="442" y="1332"/>
      <point x="631" y="1332" type="qcurve" smooth="yes"/>
      <point x="820" y="1332"/>
      <point x="1020" y="1076"/>
      <point x="1020" y="760" type="qcurve" smooth="yes"/>
      <point x="1020" y="691" type="line" smooth="yes"/>
      <point x="1020" y="379"/>
      <point x="819" y="124"/>
      <point x="633" y="124" type="qcurve" smooth="yes"/>
      <point x="447" y="124"/>
      <point x="244" y="381"/>
    </contour>
    <contour>
      <point x="730" y="1432" type="move" name="top"/>
    </contour>
  </outline>
</glyph>
<glyph name="P" format="1">
  <advance width="1044"/>
  <unicode hex="0050"/>
  <outline>
    <contour>
      <point x="156" y="0" type="line"/>
      <point x="316" y="0" type="line"/>
      <point x="316" y="620" type="line"/>
      <point x="538" y="620" type="line" smooth="yes"/>
      <point x="756" y="620"/>
      <point x="996" y="836"/>
      <point x="996" y="1048" type="qcurve" smooth="yes"/>
      <point x="996" y="1260"/>
      <point x="756" y="1456"/>
      <point x="538" y="1456" type="qcurve" smooth="yes"/>
      <point x="156" y="1456" type="line"/>
    </contour>
    <contour>
      <point x="316" y="760" type="line"/>
      <point x="316" y="1316" type="line"/>
      <point x="538" y="1316" type="line" smooth="yes"/>
      <point x="687" y="1316"/>
      <point x="832" y="1185"/>
      <point x="832" y="1046" type="qcurve" smooth="yes"/>
      <point x="832" y="907"/>
      <point x="687" y="760"/>
      <point x="538" y="760" type="qcurve" smooth="yes"/>
    </contour>
  </outline>
</glyph>
<glyph name="R" format="1">
  <advance width="1082"/>
  <unicode hex="0052"/>
  <outline>
    <contour>
      <point x="156" y="0" type="line"/>
      <point x="316" y="0" type="line"/>
      <point x="316" y="632" type="line"/>
      <point x="653" y="632" type="line"/>
      <point x="807" y="663"/>
      <point x="979" y="873"/>
      <point x="979" y="1040" type="qcurve" smooth="yes"/>
      <point x="979" y="1242"/>
      <point x="753" y="1456"/>
      <point x="547" y="1456" type="qcurve" smooth="yes"/>
      <point x="156" y="1456" type="line"/>
    </contour>
    <contour>
      <point x="316" y="770" type="line"/>
      <point x="316" y="1316" type="line"/>
      <point x="540" y="1316" type="line" smooth="yes"/>
      <point x="680" y="1316"/>
      <point x="813" y="1174"/>
      <point x="813" y="1036" type="qcurve" smooth="yes"/>
      <point x="813" y="918"/>
      <point x="677" y="769"/>
      <point x="545" y="770" type="qcurve" smooth="yes"/>
    </contour>
    <contour>
      <point x="879" y="0" type="line"/>
      <point x="1051" y="0" type="line"/>
      <point x="694" y="699" type="line"/>
      <point x="526" y="699" type="line"/>
    </contour>
  </outline>
</glyph>
<glyph name="U" format="1">
  <advance width="1199"/>
  <unicode hex="0055"/>
  <outline>
    <contour>
      <point x="130" y="464" type="line" smooth="yes"/>
      <point x="130" y="220"/>
      <point x="395" y="-18"/>
      <point x="598" y="-18" type="qcurve" smooth="yes"/>
      <point x="794" y="-18"/>
      <point x="1069" y="221"/>
      <point x="1069" y="464" type="qcurve" smooth="yes"/>
      <point x="1069" y="1456" type="line"/>
      <point x="909" y="1456" type="line"/>
      <point x="909" y="464" type="line" smooth="yes"/>
      <point x="909" y="277"/>
      <point x="746" y="124"/>
      <point x="598" y="124" type="qcurve" smooth="yes"/>
      <point x="450" y="124"/>
      <point x="290" y="277"/>
      <point x="290" y="464" type="qcurve" smooth="yes"/>
      <point x="290" y="1456" type="line"/>
      <point x="130" y="1456" type="line"/>
    </contour>
    <contour>
      <point x="682" y="1432" type="move" name="top"/>
    </contour>
  </outline>
</glyph>
<glyph name="X" format="1">
  <advance width="1093"/>
  <unicode hex="0058"/>
  <outline>
    <contour>
      <point x="0" y="1" type="line"/>
      <point x="174" y="1" type="line"/>
      <point x="571" y="665" type="line"/>
      <point x="592" y="665" type="line"/>
      <point x="1073" y="1456" type="line"/>
      <point x="897" y="1456" type="line"/>
      <point x="511" y="798" type="line"/>
      <point x="488" y="798" type="line"/>
    </contour>
    <contour>
      <point x="16" y="1456" type="line"/>
      <point x="495" y="664" type="line"/>
      <point x="512" y="664" type="line"/>
      <point x="912" y="0" type="line"/>
      <point x="1093" y="0" type="line"/>
      <point x="602" y="801" type="line"/>
      <point x="583" y="801" type="line"/>
      <point x="196" y="1456" type="line"/>
    </contour>
  </outline>
</glyph>
<glyph name="Z" format="1">
  <advance width="1030"/>
  <unicode hex="005A"/>
  <outline>
    <contour>
      <point x="24" y="0" type="line"/>
      <point x="1006" y="0" type="line"/>
      <point x="1006" y="140" type="line"/>
      <point x="216" y="140" type="line"/>
      <point x="976" y="1335" type="line"/>
      <point x="976" y="1456" type="line"/>
      <point x="41" y="1456" type="line"/>
      <point x="41" y="1316" type="line"/>
      <point x="784" y="1316" type="line"/>
      <point x="24" y="123" type="line"/>
    </contour>
  </outline>
</glyph>
<glyph name="a" format="1">
  <advance width="972"/>
  <unicode hex="0061"/>
  <outline>
    <contour>
      <point x="76" y="296" type="qcurve" smooth="yes"/>
      <point x="76" y="146"/>
      <point x="257" y="-9"/>
      <point x="387" y="-9" type="qcurve" smooth="yes"/>
      <point x="513" y="-9"/>
      <point x="661" y="77"/>
      <point x="699" y="133" type="qcurve"/>
      <point x="702" y="89"/>
      <point x="715" y="19"/>
      <point x="723" y="-1" type="qcurve"/>
      <point x="870" y="-1" type="line"/>
      <point x="870" y="9" type="line"/>
      <point x="853" y="50"/>
      <point x="846" y="167"/>
      <point x="846" y="225" type="qcurve" smooth="yes"/>
      <point x="846" y="707" type="line" smooth="yes"/>
      <point x="846" y="877"/>
      <point x="669" y="1031"/>
      <point x="492" y="1031" type="qcurve" smooth="yes"/>
      <point x="315" y="1031"/>
      <point x="124" y="863"/>
      <point x="124" y="742" type="qcurve" smooth="yes"/>
      <point x="124" y="707" type="line"/>
      <point x="278" y="707" type="line"/>
      <point x="278" y="747" type="line" smooth="yes"/>
      <point x="278" y="823"/>
      <point x="383" y="891"/>
      <point x="487" y="891" type="qcurve" smooth="yes"/>
      <point x="588" y="891"/>
      <point x="694" y="819"/>
      <point x="694" y="710" type="qcurve" smooth="yes"/>
      <point x="694" y="624" type="line"/>
      <point x="538" y="618" type="line" smooth="yes"/>
      <point x="297" y="609"/>
      <point x="76" y="442"/>
    </contour>
    <contour>
      <point x="232" y="289" type="qcurve" smooth="yes"/>
      <point x="232" y="383"/>
      <point x="393" y="479"/>
      <point x="582" y="487" type="qcurve" smooth="yes"/>
      <point x="694" y="492" type="line"/>
      <point x="694" y="321" type="line"/>
      <point x="689" y="247"/>
      <point x="538" y="127"/>
      <point x="428" y="127" type="qcurve" smooth="yes"/>
      <point x="334" y="127"/>
      <point x="232" y="209"/>
    </contour>
    <contour>
      <point x="563" y="1052" type="move" name="top"/>
    </contour>
  </outline>
</glyph>
<glyph name="c" format="1">
  <advance width="914"/>
  <unicode hex="0063"/>
  <outline>
    <contour>
      <point x="72" y="461" type="line" smooth="yes"/>
      <point x="72" y="241"/>
      <point x="287" y="-18"/>
      <point x="500" y="-18" type="qcurve" smooth="yes"/>
      <point x="694" y="-18"/>
      <point x="878" y="167"/>
      <point x="878" y="315" type="qcurve" smooth="yes"/>
      <point x="878" y="344" type="line"/>
      <point x="733" y="344" type="line"/>
      <point x="733" y="312" type="line" smooth="yes"/>
      <point x="733" y="218"/>
      <point x="627" y="118"/>
      <point x="500" y="118" type="qcurve" smooth="yes"/>
      <point x="370" y="118"/>
      <point x="229" y="285"/>
      <point x="229" y="457" type="qcurve" smooth="yes"/>
      <point x="229" y="559" type="line" smooth="yes"/>
      <point x="229" y="727"/>
      <point x="372" y="884"/>
      <point x="499" y="885" type="qcurve" smooth="yes"/>
      <point x="620" y="886"/>
      <point x="733" y="767"/>
      <point x="733" y="657" type="qcurve" smooth="yes"/>
      <point x="733" y="629" type="line"/>
      <point x="878" y="629" type="line"/>
      <point x="878" y="669" type="line" smooth="yes"/>
      <point x="878" y="826"/>
      <point x="695" y="1021"/>
      <point x="504" y="1021" type="qcurve" smooth="yes"/>
      <point x="296" y="1021"/>
      <point x="72" y="775"/>
      <point x="72" y="555" type="qcurve" smooth="yes"/>
    </contour>
    <contour>
      <point x="720" y="0" type="move" name="bottom"/>
    </contour>
  </outline>
</glyph>
<glyph name="e" format="1">
  <advance width="942"/>
  <unicode hex="0065"/>
  <outline>
    <contour>
      <point x="72" y="445" type="line" smooth="yes"/>
      <point x="72" y="227"/>
      <point x="297" y="-18"/>
      <point x="502" y="-18" type="qcurve" smooth="yes"/>
      <point x="673" y="-18"/>
      <point x="873" y="148"/>
      <point x="873" y="321" type="qcurve"/>
      <point x="728" y="321" type="line"/>
      <point x="728" y="214"/>
      <point x="616" y="118"/>
      <point x="511" y="118" type="qcurve" smooth="yes"/>
      <point x="386" y="118"/>
      <point x="226" y="274"/>
      <point x="226" y="445" type="qcurve" smooth="yes"/>
      <point x="226" y="553" type="line" smooth="yes"/>
      <point x="226" y="731"/>
      <point x="387" y="887"/>
      <point x="497" y="887" type="qcurve" smooth="yes"/>
      <point x="611" y="887"/>
      <point x="738" y="759"/>
      <point x="738" y="649" type="qcurve" smooth="yes"/>
      <point x="738" y="603" type="line"/>
      <point x="156" y="603" type="line"/>
      <point x="156" y="471" type="line"/>
      <point x="890" y="471" type="line"/>
      <point x="890" y="588" type="line" smooth="yes"/>
      <point x="890" y="788"/>
      <point x="688" y="1021"/>
      <point x="494" y="1021" type="qcurve" smooth="yes"/>
      <point x="307" y="1021"/>
      <point x="72" y="778"/>
      <point x="72" y="554" type="qcurve" smooth="yes"/>
    </contour>
    <contour>
      <point x="581" y="1052" type="move" name="top"/>
    </contour>
  </outline>
</glyph>
<glyph name="g" format="1">
  <advance width="1039"/>
  <unicode hex="0067"/>
  <outline>
    <contour>
      <point x="88" y="-278" type="line"/>
      <point x="147" y="-349"/>
      <point x="352" y="-426"/>
      <point x="506" y="-426" type="qcurve" smooth="yes"/>
      <point x="677" y="-426"/>
      <point x="909" y="-181"/>
      <point x="909" y="34" type="qcurve" smooth="yes"/>
      <point x="909" y="1003" type="line"/>
      <point x="760" y="1003" type="line"/>
      <point x="753" y="893" type="line"/>
      <point x="753" y="893" type="line"/>
      <point x="716" y="947"/>
      <point x="584" y="1016"/>
      <point x="481" y="1016" type="qcurve" smooth="yes"/>
      <point x="300" y="1016"/>
      <point x="80" y="763"/>
      <point x="80" y="537" type="qcurve" smooth="yes"/>
      <point x="80" y="466" type="line" smooth="yes"/>
      <point x="80" y="253"/>
      <point x="284" y="-4"/>
      <point x="456" y="-4" type="qcurve" smooth="yes"/>
      <point x="560" y="-4"/>
      <point x="709" y="69"/>
      <point x="753" y="143" type="qcurve"/>
      <point x="753" y="25" type="line" smooth="yes"/>
      <point x="753" y="-129"/>
      <point x="611" y="-291"/>
      <point x="498" y="-291" type="qcurve" smooth="yes"/>
      <point x="371" y="-291"/>
      <point x="225" y="-211"/>
      <point x="185" y="-159" type="qcurve"/>
    </contour>
    <contour>
      <point x="240" y="468" type="qcurve" smooth="yes"/>
      <point x="240" y="540" type="line" smooth="yes"/>
      <point x="240" y="724"/>
      <point x="378" y="880"/>
      <point x="495" y="880" type="qcurve" smooth="yes"/>
      <point x="602" y="880"/>
      <point x="732" y="781"/>
      <point x="753" y="708" type="qcurve"/>
      <point x="753" y="328" type="line"/>
      <point x="724" y="231"/>
      <point x="596" y="132"/>
      <point x="490" y="132" type="qcurve" smooth="yes"/>
      <point x="377" y="132"/>
      <point x="240" y="288"/>
    </contour>
  </outline>
</glyph>
<glyph name="i" format="1">
  <advance width="426"/>
  <unicode hex="0069"/>
  <outline>
    <contour>
      <point x="136" y="0" type="line"/>
      <point x="290" y="0" type="line"/>
      <point x="290" y="1003" type="line"/>
      <point x="136" y="1003" type="line"/>
    </contour>
    <contour>
      <point x="120" y="1349" type="qcurve" smooth="yes"/>
      <point x="120" y="1308"/>
      <point x="167" y="1257"/>
      <point x="213" y="1257" type="qcurve" smooth="yes"/>
      <point x="258" y="1257"/>
      <point x="307" y="1308"/>
      <point x="307" y="1349" type="qcurve" smooth="yes"/>
      <point x="307" y="1392"/>
      <point x="258" y="1444"/>
      <point x="213" y="1444" type="qcurve" smooth="yes"/>
      <point x="167" y="1444"/>
      <point x="120" y="1392"/>
    </contour>
  </outline>
</glyph>
<glyph name="j" format="1">
  <advance width="435"/>
  <unicode hex="006A"/>
  <outline>
    <contour>
      <point x="-85" y="-400" type="line"/>
      <point x="-61" y="-410"/>
      <point x="26" y="-427"/>
      <point x="62" y="-427" type="qcurve" smooth="yes"/>
      <point x="178" y="-427"/>
      <point x="301" y="-256"/>
      <point x="301" y="-74" type="qcurve" smooth="yes"/>
      <point x="301" y="1003" type="line"/>
      <point x="146" y="1003" type="line"/>
      <point x="146" y="-131" type="line" smooth="yes"/>
      <point x="146" y="-222"/>
      <point x="83" y="-297"/>
      <point x="30" y="-297" type="qcurve" smooth="yes"/>
      <point x="-1" y="-297"/>
      <point x="-65" y="-281"/>
      <point x="-85" y="-272" type="qcurve"/>
    </contour>
    <contour>
      <point x="128" y="1349" type="qcurve" smooth="yes"/>
      <point x="128" y="1308"/>
      <point x="176" y="1257"/>
      <point x="221" y="1257" type="qcurve" smooth="yes"/>
      <point x="266" y="1257"/>
      <point x="314" y="1308"/>
      <point x="314" y="1349" type="qcurve" smooth="yes"/>
      <point x="314" y="1392"/>
      <point x="266" y="1444"/>
      <point x="221" y="1444" type="qcurve" smooth="yes"/>
      <point x="176" y="1444"/>
      <point x="128" y="1392"/>
    </contour>
  </outline>
</glyph>
<glyph name="l" format="1">
  <advance width="419"/>
  <unicode hex="006C"/>
  <outline>
    <contour>
      <point x="132" y="0" type="line"/>
      <point x="287" y="0" type="line"/>
      <point x="287" y="1488" type="line"/>
      <point x="132" y="1488" type="line"/>
    </contour>
  </outline>
</glyph>
<glyph name="n" format="1">
  <advance width="1003"/>
  <unicode hex="006E"/>
  <outline>
    <contour>
      <point x="130" y="0" type="line"/>
      <point x="285" y="0" type="line"/>
      <point x="285" y="728" type="line"/>
      <point x="318" y="797"/>
      <point x="444" y="883"/>
      <point x="527" y="883" type="qcurve" smooth="yes"/>
      <point x="621" y="883"/>
      <point x="724" y="780"/>
      <point x="724" y="648" type="qcurve" smooth="yes"/>
      <point x="724" y="0" type="line"/>
      <point x="879" y="0" type="line"/>
      <point x="879" y="666" type="line" smooth="yes"/>
      <point x="879" y="857"/>
      <point x="714" y="1021"/>
      <point x="573" y="1021" type="qcurve" smooth="yes"/>
      <point x="479" y="1021"/>
      <point x="333" y="951"/>
      <point x="286" y="884" type="qcurve"/>
      <point x="284" y="884" type="line"/>
      <point x="282" y="1003" type="line"/>
      <point x="130" y="1003" type="line"/>
    </contour>
    <contour>
      <point x="469" y="1060" type="move" name="top"/>
    </contour>
  </outline>
</glyph>
<glyph name="o" format="1">
  <advance width="1024"/>
  <unicode hex="006F"/>
  <outline>
    <contour>
      <point x="72" y="471" type="line" smooth="yes"/>
      <point x="72" y="235"/>
      <point x="307" y="-18"/>
      <point x="513" y="-18" type="qcurve" smooth="yes"/>
      <point x="719" y="-18"/>
      <point x="952" y="235"/>
      <point x="952" y="471" type="qcurve" smooth="yes"/>
      <point x="952" y="531" type="line" smooth="yes"/>
      <point x="952" y="767"/>
      <point x="716" y="1021"/>
      <point x="511" y="1021" type="qcurve" smooth="yes"/>
      <point x="306" y="1021"/>
      <point x="72" y="767"/>
      <point x="72" y="531" type="qcurve" smooth="yes"/>
    </contour>
    <contour>
      <point x="228" y="531" type="line" smooth="yes"/>
      <point x="228" y="700"/>
      <point x="376" y="883"/>
      <point x="511" y="883" type="qcurve" smooth="yes"/>
      <point x="647" y="883"/>
      <point x="796" y="700"/>
      <point x="796" y="531" type="qcurve" smooth="yes"/>
      <point x="796" y="471" type="line" smooth="yes"/>
      <point x="796" y="302"/>
      <point x="648" y="118"/>
      <point x="513" y="118" type="qcurve" smooth="yes"/>
      <point x="377" y="118"/>
      <point x="228" y="302"/>
      <point x="228" y="471" type="qcurve" smooth="yes"/>
    </contour>
    <contour>
      <point x="581" y="1052" type="move" name="top"/>
    </contour>
  </outline>
</glyph>
<glyph name="p" format="1">
  <advance width="1031"/>
  <unicode hex="0070"/>
  <outline>
    <contour>
      <point x="130" y="-416" type="line"/>
      <point x="285" y="-416" type="line"/>
      <point x="285" y="104" type="line"/>
      <point x="315" y="58"/>
      <point x="462" y="-14"/>
      <point x="568" y="-14" type="qcurve" smooth="yes"/>
      <point x="742" y="-14"/>
      <point x="959" y="227"/>
      <point x="959" y="472" type="qcurve" smooth="yes"/>
      <point x="959" y="572" type="line" smooth="yes"/>
      <point x="959" y="789"/>
      <point x="752" y="1021"/>
      <point x="578" y="1021" type="qcurve" smooth="yes"/>
      <point x="482" y="1021"/>
      <point x="330" y="943"/>
      <point x="284" y="876" type="qcurve"/>
      <point x="284" y="876" type="line"/>
      <point x="282" y="1003" type="line"/>
      <point x="130" y="1003" type="line"/>
    </contour>
    <contour>
      <point x="285" y="296" type="qcurve"/>
      <point x="285" y="711" type="line"/>
      <point x="308" y="784"/>
      <point x="439" y="883"/>
      <point x="538" y="883" type="qcurve" smooth="yes"/>
      <point x="667" y="883"/>
      <point x="801" y="721"/>
      <point x="801" y="563" type="qcurve" smooth="yes"/>
      <point x="801" y="482" type="line" smooth="yes"/>
      <point x="801" y="294"/>
      <point x="670" y="123"/>
      <point x="544" y="123" type="qcurve" smooth="yes"/>
      <point x="443" y="123"/>
      <point x="310" y="226"/>
    </contour>
  </outline>
</glyph>
<glyph name="q" format="1">
  <advance width="1037"/>
  <unicode hex="0071"/>
  <outline>
    <contour>
      <point x="80" y="467" type="line" smooth="yes"/>
      <point x="80" y="221"/>
      <point x="287" y="-18"/>
      <point x="464" y="-18" type="qcurve" smooth="yes"/>
      <point x="560" y="-18"/>
      <point x="703" y="52"/>
      <point x="752" y="122" type="qcurve"/>
      <point x="752" y="-416" type="line"/>
      <point x="907" y="-416" type="line"/>
      <point x="907" y="1003" type="line"/>
      <point x="756" y="1003" type="line"/>
      <point x="754" y="891" type="line"/>
      <point x="754" y="891" type="line"/>
      <point x="721" y="947"/>
      <point x="577" y="1018"/>
      <point x="489" y="1018" type="qcurve" smooth="yes"/>
      <point x="287" y="1018"/>
      <point x="80" y="762"/>
      <point x="80" y="542" type="qcurve" smooth="yes"/>
    </contour>
    <contour>
      <point x="239" y="466" type="qcurve" smooth="yes"/>
      <point x="239" y="522" type="line" smooth="yes"/>
      <point x="239" y="692"/>
      <point x="366" y="880"/>
      <point x="495" y="880" type="qcurve" smooth="yes"/>
      <point x="599" y="880"/>
      <point x="732" y="770"/>
      <point x="752" y="707" type="qcurve"/>
      <point x="752" y="297" type="line"/>
      <point x="722" y="215"/>
      <point x="595" y="120"/>
      <point x="492" y="120" type="qcurve" smooth="yes"/>
      <point x="365" y="120"/>
      <point x="239" y="281"/>
    </contour>
  </outline>
</glyph>
<glyph name="t" format="1">
  <advance width="534"/>
  <unicode hex="0074"/>
  <outline>
    <contour>
      <point x="-11" y="865" type="line"/>
      <point x="508" y="865" type="line"/>
      <point x="508" y="1003" type="line"/>
      <point x="-11" y="1003" type="line"/>
    </contour>
    <contour>
      <point x="148" y="233" type="line" smooth="yes"/>
      <point x="148" y="105"/>
      <point x="264" y="-10"/>
      <point x="360" y="-10" type="qcurve" smooth="yes"/>
      <point x="397" y="-10"/>
      <point x="481" y="-1"/>
      <point x="504" y="8" type="qcurve"/>
      <point x="504" y="137" type="line"/>
      <point x="483" y="131"/>
      <point x="425" y="124"/>
      <point x="396" y="124" type="qcurve" smooth="yes"/>
      <point x="350" y="124"/>
      <point x="303" y="179"/>
      <point x="303" y="246" type="qcurve" smooth="yes"/>
      <point x="303" y="1253" type="line"/>
      <point x="148" y="1253" type="line"/>
      <point x="148" y="965" type="line"/>
      <point x="148" y="931" type="line"/>
    </contour>
  </outline>
</glyph>
<glyph name="u" format="1">
  <advance width="1004"/>
  <unicode hex="0075"/>
  <outline>
    <contour>
      <point x="124" y="329" type="line" smooth="yes"/>
      <point x="124" y="149"/>
      <point x="292" y="-17"/>
      <point x="432" y="-17" type="qcurve" smooth="yes"/>
      <point x="536" y="-17"/>
      <point x="672" y="64"/>
      <point x="715" y="132" type="qcurve"/>
      <point x="715" y="132" type="line"/>
      <point x="718" y="0" type="line"/>
      <point x="874" y="0" type="line"/>
      <point x="874" y="1003" type="line"/>
      <point x="719" y="1003" type="line"/>
      <point x="719" y="285" type="line"/>
      <point x="689" y="206"/>
      <point x="556" y="119"/>
      <point x="463" y="119" type="qcurve" smooth="yes"/>
      <point x="367" y="119"/>
      <point x="280" y="226"/>
      <point x="280" y="338" type="qcurve" smooth="yes"/>
      <point x="280" y="1003" type="line"/>
      <point x="124" y="1003" type="line"/>
    </contour>
    <contour>
      <point x="490.0" y="1003.0" type="move" name="top"/>
    </contour>
  </outline>
</glyph>
<glyph name="v" format="1">
  <advance width="863"/>
  <unicode hex="0076"/>
  <outline>
    <contour>
      <point x="-10" y="1003" type="line"/>
      <point x="367" y="0" type="line"/>
      <point x="491" y="0" type="line"/>
      <point x="873" y="1003" type="line"/>
      <point x="716" y="1003" type="line"/>
      <point x="485" y="373" type="line" smooth="yes"/>
      <point x="468" y="326"/>
      <point x="446" y="264"/>
      <point x="434" y="222" type="qcurve"/>
      <point x="432" y="222" type="line"/>
      <point x="422" y="258"/>
      <point x="400" y="318"/>
      <point x="380" y="373" type="qcurve" smooth="yes"/>
      <point x="153" y="1003" type="line"/>
    </contour>
  </outline>
</glyph>
